<?xml version="1.0" encoding="UTF-8"?>
<svg id="Layer_1" xmlns="http://www.w3.org/2000/svg" version="1.1" viewBox="0 0 289.31 55.45">
  <!-- Generator: Adobe Illustrator 29.4.0, SVG Export Plug-In . SVG Version: 2.1.0 Build 152)  -->
  <defs>
    <style>
      .st0 {
        fill: #41b65b;
        fill-rule: evenodd;
      }
    </style>
  </defs>
  <g id="Logotype">
    <path id="Fill-1" class="st0" d="M83.17,0l-21.75,55.45h18.39l2.65-7.39h21l2.65,7.39h18.39L102.75,0h-19.57ZM92.96,17.8l6.2,17.32h-12.4l6.2-17.32Z"/>
    <polygon id="Fill-2" class="st0" points="183.91 0 183.91 55.45 227.34 55.45 227.34 41.59 201.47 41.59 201.47 34.19 226.42 34.19 226.42 21.26 201.47 21.26 201.47 13.86 227.34 13.86 227.34 0 183.91 0"/>
    <polygon id="Fill-3" class="st0" points="159.55 0 146.51 36.46 133.46 0 114.98 0 136.72 55.45 156.29 55.45 178.04 0 159.55 0"/>
    <polygon id="Fill-4" class="st0" points="37.89 0 37.89 29.68 17.67 0 0 0 0 55.45 17.56 55.45 17.56 25.77 37.78 55.45 55.45 55.45 55.45 44.89 55.45 0 37.89 0"/>
    <path id="Fill-5" class="st0" d="M263,25.88h-9.78v-12.01h9.73c2.59,0,4.99,1.61,5.76,4.09,1.29,4.13-1.77,7.93-5.71,7.93h0ZM275.3,36.43l1.68-.7c6.44-2.7,9.72-8.53,9.72-15.94,0-7-2.55-12.19-7.59-15.4-4.68-2.99-10.76-4.38-19.12-4.38h-23.41v55.45h17.56v-15.71h6.31l10.7,15.71h18.16l-14.02-19.02Z"/>
  </g>
</svg>